<!DOCTYPE svg PUBLIC "-//W3C//DTD SVG 1.1//EN" "http://www.w3.org/Graphics/SVG/1.1/DTD/svg11.dtd">
<!-- Uploaded to: SVG Repo, www.svgrepo.com, Transformed by: SVG Repo Mixer Tools -->
<svg width="256px" height="256px" viewBox="0 0 24 24" fill="none" xmlns="http://www.w3.org/2000/svg">
<g id="SVGRepo_bgCarrier" stroke-width="0"/>
<g id="SVGRepo_tracerCarrier" stroke-linecap="round" stroke-linejoin="round" stroke="#1a1a1a" stroke-width="1.248"> <path d="M20 8.25V18C20 21 18.21 22 16 22H8C5.79 22 4 21 4 18V8.25C4 5 5.79 4.25 8 4.25C8 4.87 8.24997 5.43 8.65997 5.84C9.06997 6.25 9.63 6.5 10.25 6.5H13.75C14.99 6.5 16 5.49 16 4.25C18.21 4.25 20 5 20 8.25Z" stroke="#efeeeb" stroke-width="1.5" stroke-linecap="round" stroke-linejoin="round"/> <path d="M16 4.25C16 5.49 14.99 6.5 13.75 6.5H10.25C9.63 6.5 9.06997 6.25 8.65997 5.84C8.24997 5.43 8 4.87 8 4.25C8 3.01 9.01 2 10.25 2H13.75C14.37 2 14.93 2.25 15.34 2.66C15.75 3.07 16 3.63 16 4.25Z" stroke="#efeeeb" stroke-width="1.5" stroke-linecap="round" stroke-linejoin="round"/> <path opacity="0.4" d="M8 13H12" stroke="#efeeeb" stroke-width="1.5" stroke-linecap="round" stroke-linejoin="round"/> <path opacity="0.4" d="M8 17H16" stroke="#efeeeb" stroke-width="1.5" stroke-linecap="round" stroke-linejoin="round"/> </g>
<g id="SVGRepo_iconCarrier"> <path d="M20 8.25V18C20 21 18.21 22 16 22H8C5.79 22 4 21 4 18V8.25C4 5 5.79 4.25 8 4.25C8 4.87 8.24997 5.43 8.65997 5.84C9.06997 6.25 9.63 6.5 10.25 6.5H13.75C14.99 6.5 16 5.49 16 4.25C18.21 4.25 20 5 20 8.25Z" stroke="#efeeeb" stroke-width="1.5" stroke-linecap="round" stroke-linejoin="round"/> <path d="M16 4.25C16 5.49 14.99 6.5 13.75 6.5H10.25C9.63 6.5 9.06997 6.25 8.65997 5.84C8.24997 5.43 8 4.87 8 4.25C8 3.01 9.01 2 10.25 2H13.75C14.37 2 14.93 2.25 15.34 2.66C15.75 3.07 16 3.63 16 4.25Z" stroke="#efeeeb" stroke-width="1.5" stroke-linecap="round" stroke-linejoin="round"/> <path opacity="0.4" d="M8 13H12" stroke="#efeeeb" stroke-width="1.5" stroke-linecap="round" stroke-linejoin="round"/> <path opacity="0.4" d="M8 17H16" stroke="#efeeeb" stroke-width="1.5" stroke-linecap="round" stroke-linejoin="round"/> </g>
</svg>